<?xml version="1.0" encoding="UTF-8"?>
<svg id="Lager_2" data-name="Lager 2" xmlns="http://www.w3.org/2000/svg" viewBox="0 0 509.03 509.04">
  <defs>
    <style>
      .cls-1 {
        fill: #fff;
      }

      .cls-2 {
        fill: #f39200;
      }

      .cls-3 {
        fill: #f9b233;
      }

      .cls-4 {
        fill: none;
      }

      .cls-5 {
        fill: #1d1d1b;
      }
    </style>
  </defs>
  <g id="Lager_2-2" data-name="Lager 2">
    <path class="cls-1" d="M405.42,254.51c0,9.38-.7,18.51-2.02,27.26-4.51,29.93-16.3,55.46-32.29,71.76-11.82,12.08-25.96,19.1-41.13,19.1s-30.2-7.46-42.25-20.26c-20.03-21.23-33.19-57.15-33.19-97.86,0-22.66,4.08-43.85,11.15-61.83,11.62-29.53,31.29-50.46,54.22-55.24,3.29-.69,6.66-1.05,10.07-1.05,.93,0,1.85,.03,2.76,.09,14.43,.8,27.82,7.97,39.08,19.74,2.82,2.95,5.5,6.19,8.04,9.68,7.41,10.23,13.51,22.69,17.91,36.72,4.9,15.66,7.65,33.28,7.65,51.89h0Z"/>
    <path class="cls-1" d="M254.54,254.51c0,40.71-13.17,76.63-33.19,97.86-12.05,12.79-26.59,20.26-42.25,20.26s-28.8-6.76-40.49-18.44c-16.32-16.27-28.35-42.08-32.94-72.42-1.32-8.75-2.02-17.88-2.02-27.26,0-18.68,2.76-36.36,7.71-52.06,.3-.95,.6-1.88,.92-2.81,.17-.52,.34-1.02,.53-1.53,0-.07,.04-.14,.07-.21,.3-.89,.62-1.76,.95-2.64,.3-.82,.62-1.63,.93-2.44,.49-1.25,.99-2.46,1.5-3.67,.3-.72,.6-1.42,.92-2.11,.62-1.4,1.26-2.76,1.92-4.11,.21-.49,.46-.97,.7-1.45,.43-.86,.87-1.7,1.32-2.54,1.19-2.25,2.44-4.43,3.75-6.53,.49-.8,.99-1.6,1.5-2.38,.09-.14,.17-.29,.27-.42,.42-.64,.85-1.28,1.29-1.91,.4-.57,.8-1.15,1.22-1.72,1.35-1.88,2.75-3.68,4.21-5.42,.46-.57,.93-1.12,1.42-1.66,.99-1.15,2.02-2.26,3.09-3.34,.43-.46,.87-.9,1.32-1.33,.47-.47,.96-.92,1.43-1.36,1.07-1.02,2.19-1.99,3.32-2.92,.49-.4,.97-.8,1.46-1.17,1.6-1.26,3.24-2.42,4.9-3.5,.56-.36,1.12-.7,1.68-1.05,.56-.34,1.12-.67,1.69-.99,.5-.27,1-.54,1.5-.82,.06-.03,.13-.07,.2-.1,.57-.3,1.16-.59,1.73-.86,.47-.23,.93-.44,1.4-.64,1.32-.59,2.65-1.12,4-1.59,.97-.34,1.98-.66,2.98-.95,0,0,.03,0,.04,0,.39-.11,.79-.21,1.17-.32,1.66-.44,3.34-.79,5.04-1.03,.42-.07,.82-.13,1.23-.17,.8-.1,1.62-.19,2.44-.24,.59-.04,1.17-.09,1.76-.1,.63-.03,1.28-.04,1.91-.04s1.28,0,1.92,.04c.66,0,1.3,.06,1.96,.11,1.25,.1,2.48,.24,3.71,.44,3.85,.59,7.61,1.65,11.26,3.12,.57,.23,1.16,.47,1.73,.73,1.69,.74,3.37,1.59,5.03,2.54,.47,.26,.95,.53,1.4,.82,6.35,3.81,12.28,8.93,17.66,15.14,.4,.46,.8,.93,1.2,1.4,.76,.9,1.5,1.83,2.22,2.79,.37,.46,.73,.93,1.07,1.42,1.05,1.39,2.05,2.84,3.04,4.31,.37,.56,.74,1.13,1.12,1.72,.43,.67,.86,1.35,1.26,2.03,.33,.53,.64,1.06,.97,1.6,.34,.59,.69,1.19,1.03,1.79,.32,.56,.63,1.13,.93,1.69,.82,1.5,1.6,3.04,2.36,4.6,.29,.57,.56,1.15,.83,1.73,.27,.56,.53,1.13,.79,1.69,.27,.59,.53,1.16,.79,1.76,.43,.97,.85,1.96,1.25,2.95,.24,.59,.49,1.19,.72,1.79,.2,.52,.4,1.02,.6,1.53,.19,.52,.39,1.03,.57,1.55,.3,.83,.6,1.66,.89,2.49,.4,1.16,.8,2.34,1.17,3.51,.24,.76,.49,1.53,.72,2.31,.2,.67,.4,1.36,.6,2.03,.24,.82,.47,1.65,.69,2.48,.2,.73,.4,1.48,.59,2.23,.13,.52,.26,1.03,.39,1.55,.17,.72,.34,1.45,.52,2.16,.16,.72,.32,1.43,.47,2.15,.17,.79,.34,1.6,.5,2.41,.79,3.93,1.46,7.95,1.98,12.03,.13,.95,.24,1.89,.34,2.85,.76,6.69,1.15,13.57,1.15,20.59l.04,.06Z"/>
    <path class="cls-2" d="M254.58,373.35h-.01c0,.11,0,.15-.03,.18,.01,.04,0,.06-.01,.06-.01,0-.01,.03-.01,.04-.01,.01-.01,.04-.01,.07s0,.07,0,.11h.11c-.03-.36-.01-.16-.03-.46Zm28.71,135.59h.07c.78-.09,1.55-.18,2.33-.28-.8,.1-1.6,.19-2.4,.28Z"/>
    <g>
      <path class="cls-2" d="M283.29,508.94h.07c.78-.09,1.55-.18,2.33-.28-.8,.1-1.6,.19-2.4,.28Z"/>
      <path class="cls-2" d="M508.63,279.88c.27-8.15,.4-16.6,.4-25.36,0-65.58-24.81-125.37-65.56-170.51h.03c.04-.1,.09-.18,.11-.27-2.99-3.29-6.06-6.52-9.23-9.64-18.08-17.95-38.82-33.21-61.6-45.13-3.5-1.83-7.03-3.58-10.62-5.24-.01,.01-.03,.04-.04,.06-11.92-5.56-24.34-10.24-37.19-13.95-1.83-.52-3.68-1.03-5.53-1.52-.99-.26-1.98-.52-2.97-.76-1.06-.26-2.12-.52-3.19-.77-2.84-.66-5.69-1.29-8.57-1.86-2.87-.57-5.76-1.1-8.67-1.58-2.68-.43-5.37-.83-8.09-1.19-1.81-.23-3.61-.44-5.43-.64-.92-.1-1.82-.2-2.74-.29-1.43-.14-2.88-.27-4.33-.39-.86-.07-1.73-.13-2.61-.2-.23-.01-.46-.03-.69-.04-1.09-.07-2.18-.14-3.27-.2-1.19-.07-2.38-.13-3.57-.17-.97-.04-1.95-.09-2.92-.1-.42-.03-.83-.03-1.23-.04-2.19-.06-4.38-.09-6.59-.09h-.03c-1.28,0-2.55,.01-3.81,.03-1.45,.01-2.89,.06-4.34,.1-1.09,.03-2.18,.07-3.27,.13-1.05,.04-2.09,.09-3.14,.16-.37,.01-.74,.04-1.1,.06-1.12,.07-2.21,.14-3.31,.23-.96,.07-1.92,.14-2.87,.23-1.55,.13-3.09,.27-4.63,.43-1.25,.13-2.48,.26-3.72,.42-1.19,.13-2.38,.29-3.55,.44-1.35,.17-2.69,.37-4.04,.56-1.02,.16-2.02,.32-3.02,.47-1.46,.24-2.92,.49-4.37,.73-2.34,.43-4.66,.87-6.96,1.36-1.22,.26-2.44,.52-3.65,.77-20.33,4.57-39.73,11.55-57.91,20.64-.01-.03-.03-.04-.04-.07-4.96,2.46-9.83,5.1-14.6,7.88-22.52,13.12-42.85,29.6-60.31,48.74-1.92,2.09-3.8,4.23-5.64,6.39,.04,.09,.09,.17,.13,.26C22.72,134.34,0,191.77,0,254.52c-.03,8.28,.07,16.29,.3,24.04,0,.11,.02,.21,.03,.32,6.08,213.64,102.78,228.96,225.36,230.06,.03,0,.07,.01,.1,.01,9.43,.09,19.01,.09,28.72,.09s19.31,0,28.75-.09c.03,0,.06-.01,.09-.01h-.07c.8-.09,1.6-.18,2.4-.28-.78,.1-1.55,.19-2.33,.28,122.31-1.1,218.36-16.37,225.29-229.07-3.54,37.07-15.01,71.81-32.7,102.54,17.67-30.73,29.14-65.47,32.68-102.53Zm-78.79,77.5l.05,.07c-3.93,13.37-26.35,76.27-99.91,74.91,0,0-72.23,4.51-75.38-58.55h-.11c-3.15,63.06-75.38,58.55-75.38,58.55-75.07,1.39-96.87-64.15-100.12-75.67-30.79-10.96-52.82-40.37-52.82-74.92,0-1.2,.03-2.39,.09-3.58,.01-.39,.03-.76,.06-1.15,.03-.57,.07-1.15,.11-1.72,.04-.56,.1-1.13,.16-1.69,.06-.66,.14-1.33,.23-1.99,.06-.47,.11-.95,.2-1.42,.1-.7,.2-1.4,.33-2.09,.09-.52,.17-1.02,.27-1.52,.17-.9,.36-1.81,.57-2.71,.11-.53,.24-1.05,.37-1.56,.26-1.02,.53-2.03,.83-3.04,.14-.5,.3-1.02,.46-1.52,.52-1.65,1.09-3.28,1.73-4.9,.2-.54,.42-1.07,.64-1.6,.2-.47,.39-.95,.6-1.42,.03-.07,.06-.13,.09-.2,.21-.5,.44-.99,.67-1.48,.23-.52,.47-1.02,.73-1.53,.46-.95,.95-1.88,1.45-2.79,.17-.33,.36-.66,.54-.99,.2-.36,.4-.72,.62-1.06,.6-1.06,1.25-2.11,1.91-3.12,.33-.52,.67-1.02,1.02-1.52,.69-1.02,1.39-2.01,2.12-2.98,.52-.7,1.05-1.39,1.59-2.06,.26-.32,.52-.63,.77-.95,.8-.97,1.63-1.95,2.49-2.88,.4-.44,.82-.89,1.23-1.33,.46-.49,.93-.96,1.4-1.43,.66-.67,1.35-1.32,2.03-1.96,2.42-2.26,4.99-4.37,7.68-6.32,.33-.23,.67-.47,1-.7,.47-.34,.95-.66,1.42-.97,.46-.3,.93-.62,1.4-.92,.56-.36,1.12-.7,1.68-1.03,1.43-.87,2.88-1.69,4.37-2.45,.42-.23,.85-.44,1.26-.64,.5-.26,1.02-.5,1.52-.74,.52-.23,1.02-.47,1.53-.7,9.88-4.4,20.82-6.85,32.33-6.85,1.92,0,3.81,.07,5.69,.2,.3-.95,.6-1.88,.92-2.81,.17-.52,.34-1.02,.53-1.53,0-.07,.04-.14,.07-.21,.3-.89,.62-1.76,.95-2.64,.3-.82,.62-1.63,.93-2.44,.49-1.25,.99-2.46,1.5-3.67,.3-.72,.6-1.42,.92-2.11,.62-1.4,1.26-2.76,1.92-4.11,.21-.49,.46-.97,.7-1.45,.43-.86,.87-1.7,1.32-2.54,1.19-2.25,2.44-4.43,3.75-6.53,.49-.8,.99-1.6,1.5-2.38,.09-.14,.17-.29,.27-.42,.42-.64,.85-1.28,1.29-1.91,.4-.57,.8-1.15,1.22-1.72,1.35-1.88,2.75-3.68,4.21-5.42,.46-.57,.93-1.12,1.42-1.66,.99-1.15,2.02-2.26,3.09-3.34,.43-.46,.87-.9,1.32-1.33,.47-.47,.96-.92,1.43-1.36,1.07-1.02,2.19-1.99,3.32-2.92,.49-.4,.97-.8,1.46-1.17,1.6-1.26,3.24-2.42,4.9-3.5,.56-.36,1.12-.7,1.68-1.05,.56-.34,1.12-.67,1.69-.99,.5-.27,1-.54,1.5-.82,.06-.03,.13-.07,.2-.1,.57-.3,1.16-.59,1.73-.86,.47-.23,.93-.44,1.4-.64,1.32-.59,2.65-1.12,4-1.59,.97-.34,1.98-.66,2.98-.95,.01-.01,.03-.01,.04-.01,.39-.11,.79-.21,1.17-.32,1.66-.44,3.34-.79,5.04-1.03,.42-.07,.82-.13,1.23-.17,.8-.1,1.62-.19,2.44-.24,.59-.04,1.17-.09,1.76-.1,.63-.03,1.28-.04,1.91-.04s1.28,.01,1.92,.04c.66,.01,1.3,.06,1.96,.11,1.25,.1,2.48,.24,3.71,.44,3.85,.59,7.61,1.65,11.26,3.12,.57,.23,1.16,.47,1.73,.73,1.69,.74,3.37,1.59,5.03,2.54,.47,.26,.95,.53,1.4,.82,6.35,3.81,12.28,8.93,17.66,15.14,.4,.46,.8,.93,1.2,1.4,.76,.9,1.5,1.83,2.22,2.79,.37,.46,.73,.93,1.07,1.42,1.05,1.39,2.05,2.84,3.04,4.31,.37,.56,.74,1.13,1.12,1.72,.43,.67,.86,1.35,1.26,2.03,.33,.53,.64,1.06,.97,1.6,.34,.59,.69,1.19,1.03,1.79,.32,.56,.63,1.13,.93,1.69,.82,1.5,1.6,3.04,2.36,4.6,.29,.57,.56,1.15,.83,1.73,.27,.56,.53,1.13,.79,1.69,.27,.59,.53,1.16,.79,1.76,.43,.97,.85,1.96,1.25,2.95,.24,.59,.49,1.19,.72,1.79,.2,.52,.4,1.02,.6,1.53,.19,.52,.39,1.03,.57,1.55,.3,.83,.6,1.66,.89,2.49,.4,1.16,.8,2.34,1.17,3.51,.24,.76,.49,1.53,.72,2.31,.2,.67,.4,1.36,.6,2.03,.24,.82,.47,1.65,.69,2.48,.2,.73,.4,1.48,.59,2.23,.13,.52,.26,1.03,.39,1.55,.17,.72,.34,1.45,.52,2.16,.16,.72,.32,1.43,.47,2.15,.17,.79,.34,1.6,.5,2.41,.79,3.93,1.46,7.95,1.98,12.03,.13,.95,.24,1.89,.34,2.85,.76,6.69,1.15,13.57,1.15,20.59,0-22.66,4.08-43.85,11.15-61.83,11.62-29.53,31.29-50.46,54.22-55.24,3.29-.69,6.66-1.05,10.07-1.05,.93,0,1.85,.03,2.76,.09,14.43,.8,27.82,7.97,39.08,19.74,2.82,2.95,5.5,6.19,8.04,9.68,7.41,10.23,13.51,22.69,17.91,36.72,2.52-.24,5.07-.37,7.65-.37,1.86,0,3.72,.06,5.56,.2,.33,0,.66,.04,.99,.07,.64,.04,1.3,.1,1.95,.19,.36,.03,.7,.07,1.06,.11,.6,.07,1.2,.16,1.8,.24,.53,.07,1.06,.14,1.59,.24,.59,.1,1.17,.2,1.76,.32,.59,.1,1.17,.21,1.75,.34,.57,.11,1.15,.24,1.7,.37,.57,.13,1.15,.26,1.7,.42,.5,.13,1,.26,1.49,.4,.67,.19,1.35,.37,2.02,.59,.47,.14,.95,.29,1.42,.44,.66,.21,1.3,.44,1.96,.69,.52,.17,1.02,.36,1.53,.56,.53,.2,1.05,.4,1.56,.6,.17,.07,.33,.14,.5,.21,.53,.21,1.05,.44,1.58,.67,.4,.17,.79,.34,1.19,.53,.52,.23,1.03,.49,1.55,.73s1.03,.5,1.53,.76c.77,.4,1.55,.8,2.29,1.23,.62,.33,1.22,.67,1.82,1.03,.9,.53,1.78,1.07,2.65,1.63,.73,.47,1.45,.95,2.16,1.45,.46,.32,.92,.63,1.36,.96,1.45,1.03,2.85,2.13,4.23,3.27,.37,.3,.73,.62,1.1,.95,1.12,.95,2.19,1.92,3.25,2.95,.33,.3,.66,.62,.96,.95,1,.97,1.96,1.98,2.89,3.02,.3,.33,.6,.66,.89,.99,.53,.6,1.05,1.2,1.55,1.82,.52,.63,1.03,1.25,1.5,1.89,.09,.1,.17,.2,.24,.32,.53,.67,1.03,1.36,1.53,2.05,.34,.47,.67,.95,.99,1.42,.33,.47,.64,.95,.96,1.43,.3,.46,.6,.93,.9,1.4,.46,.73,.92,1.48,1.35,2.23,.44,.76,.86,1.52,1.28,2.29,.27,.52,.54,1.02,.8,1.53,.39,.77,.77,1.55,1.15,2.34,.36,.79,.72,1.58,1.06,2.38,.13,.27,.24,.54,.34,.82,.11,.27,.23,.53,.33,.8,.21,.54,.43,1.07,.63,1.63,.17,.43,.33,.85,.47,1.27,.07,.19,.14,.37,.19,.54,.24,.69,.47,1.38,.7,2.06,.24,.79,.49,1.59,.72,2.39,1.07,3.78,1.88,7.66,2.38,11.65,.09,.66,.17,1.33,.23,1.99,.11,1.07,.2,2.15,.26,3.24,.03,.4,.06,.82,.07,1.22,.06,1.22,.09,2.45,.09,3.68,0,35.39-23.11,65.37-55.05,75.68Z"/>
    </g>
    <path class="cls-4" d="M285.91,354.98c0,10.39-14.03,18.82-31.32,18.84h-.11c-17.29-.01-31.3-8.45-31.3-18.84,0-.1,0-.19,.01-.3,.26-10.27,14.2-18.54,31.35-18.54s31.1,8.27,31.36,18.54c.01,.11,.01,.2,.01,.3h0Z"/>
    <path class="cls-3" d="M484.95,281.77c0,35.39-23.11,65.37-55.05,75.68-3.93,13.37-26.35,76.27-99.91,74.91,0,0-72.23,4.51-75.38-58.55,17.29-.01,31.32-8.45,31.32-18.84,0-.1,0-.19-.01-.3-.26-10.27-14.2-18.54-31.36-18.54s-31.09,8.27-31.35,18.54c-.01,.11-.01,.2-.01,.3,0,10.39,14.01,18.82,31.3,18.84-3.15,63.06-75.38,58.55-75.38,58.55-75.07,1.39-96.87-64.15-100.12-75.67-30.79-10.96-52.82-40.37-52.82-74.92,0-1.2,.03-2.39,.09-3.58,.01-.39,.03-.76,.06-1.15,.03-.57,.07-1.15,.11-1.72,.04-.56,.1-1.13,.16-1.69,.06-.66,.14-1.33,.23-1.99,.06-.47,.11-.95,.2-1.42,.1-.7,.2-1.4,.33-2.09,.09-.52,.17-1.02,.27-1.52,.17-.9,.36-1.81,.57-2.71,.11-.53,.24-1.05,.37-1.56,.26-1.02,.53-2.03,.83-3.04,.14-.5,.3-1.02,.46-1.52,.52-1.65,1.09-3.28,1.73-4.9,.2-.54,.42-1.07,.64-1.6,.2-.47,.39-.95,.6-1.42,.03-.07,.06-.13,.09-.2,.21-.5,.44-.99,.67-1.48,.23-.52,.47-1.02,.73-1.53,.46-.95,.95-1.88,1.45-2.79,.17-.33,.36-.66,.54-.99,.2-.36,.4-.72,.62-1.06,.6-1.06,1.25-2.11,1.91-3.12,.33-.52,.67-1.02,1.02-1.52,.69-1.02,1.39-2.01,2.12-2.98,.52-.7,1.05-1.39,1.59-2.06,.26-.32,.52-.63,.77-.95,.8-.97,1.63-1.95,2.49-2.88,.4-.44,.82-.89,1.23-1.33,.46-.49,.93-.96,1.4-1.43,.66-.67,1.35-1.32,2.03-1.96,2.42-2.26,4.99-4.37,7.68-6.32,.33-.23,.67-.47,1-.7,.47-.34,.95-.66,1.42-.97,.46-.3,.93-.62,1.4-.92,.56-.36,1.12-.7,1.68-1.03,1.43-.87,2.88-1.69,4.37-2.45,.42-.23,.85-.44,1.26-.64,.5-.26,1.02-.5,1.52-.74,.52-.23,1.02-.47,1.53-.7,9.88-4.4,20.82-6.85,32.33-6.85,1.92,0,3.81,.07,5.69,.2-4.94,15.7-7.71,33.38-7.71,52.06,0,9.38,.7,18.51,2.02,27.26,4.58,30.34,16.62,56.14,32.94,72.42,11.69,11.68,25.59,18.44,40.49,18.44,15.66,0,30.2-7.46,42.25-20.26,20.03-21.23,33.19-57.15,33.19-97.86,0,40.71,13.17,76.63,33.19,97.86,12.05,12.79,26.59,20.26,42.25,20.26s29.31-7.02,41.13-19.1c15.99-16.3,27.78-41.83,32.29-71.76,1.32-8.75,2.02-17.88,2.02-27.26,0-18.61-2.75-36.23-7.65-51.89,2.52-.24,5.07-.37,7.65-.37,1.86,0,3.72,.06,5.56,.2,.33,0,.66,.04,.99,.07,.64,.04,1.3,.1,1.95,.19,.36,.03,.7,.07,1.06,.11,.6,.07,1.2,.16,1.8,.24,.53,.07,1.06,.14,1.59,.24,.59,.1,1.17,.2,1.76,.32,.59,.1,1.17,.21,1.75,.34,.57,.11,1.15,.24,1.7,.37,.57,.13,1.15,.26,1.7,.42,.5,.13,1,.26,1.49,.4,.67,.19,1.35,.37,2.02,.59,.47,.14,.95,.29,1.42,.44,.66,.21,1.3,.44,1.96,.69,.52,.17,1.02,.36,1.53,.56,.53,.2,1.05,.4,1.56,.6,.17,.07,.33,.14,.5,.21,.53,.21,1.05,.44,1.58,.67,.4,.17,.79,.34,1.19,.53,.52,.23,1.03,.49,1.55,.73s1.03,.5,1.53,.76c.77,.4,1.55,.8,2.29,1.23,.62,.33,1.22,.67,1.82,1.03,.9,.53,1.78,1.07,2.65,1.63,.73,.47,1.45,.95,2.16,1.45,.46,.32,.92,.63,1.36,.96,1.45,1.03,2.85,2.13,4.23,3.27,.37,.3,.73,.62,1.1,.95,1.12,.95,2.19,1.92,3.25,2.95,.33,.3,.64,.62,.96,.95,1,.97,1.96,1.98,2.89,3.02,.3,.33,.6,.66,.89,.99,.53,.6,1.05,1.2,1.55,1.82,.52,.63,1.03,1.25,1.5,1.89,.09,.1,.17,.2,.24,.32,.53,.67,1.03,1.36,1.53,2.05,.34,.47,.67,.95,.99,1.42,.33,.47,.64,.95,.96,1.43,.3,.46,.6,.93,.9,1.4,.46,.73,.92,1.48,1.35,2.23,.44,.76,.86,1.52,1.28,2.29,.27,.52,.54,1.02,.8,1.53,.39,.77,.77,1.55,1.15,2.34,.36,.79,.72,1.58,1.06,2.38,.13,.27,.24,.54,.34,.82,.11,.27,.23,.53,.33,.8,.21,.54,.43,1.07,.63,1.63,.17,.43,.33,.85,.47,1.27,.07,.19,.14,.37,.19,.54,.24,.69,.47,1.38,.7,2.06,.24,.79,.49,1.59,.72,2.39,1.07,3.78,1.88,7.66,2.38,11.65,.09,.66,.17,1.33,.23,1.99,.11,1.07,.2,2.15,.26,3.24,.03,.4,.06,.82,.07,1.22,.06,1.22,.09,2.45,.09,3.68h0Z"/>
    <path class="cls-5" d="M285.91,354.98c0,10.39-14.03,18.82-31.32,18.84-.03-.39-.02-.13-.03-.53-.01,.4-.05,.15-.08,.53-17.29-.01-31.3-8.45-31.3-18.84,0-.1,0-.19,.01-.3,.26-10.27,14.2-18.54,31.35-18.54s31.1,8.27,31.36,18.54c.01,.11,.01,.2,.01,.3h0Z"/>
    <circle class="cls-5" cx="68.93" cy="253.71" r="3.57"/>
    <circle class="cls-5" cx="94.34" cy="294.58" r="3.57"/>
    <circle class="cls-5" cx="44.91" cy="294.58" r="3.57"/>
    <circle class="cls-5" cx="442.83" cy="253.71" r="7.18"/>
    <circle class="cls-5" cx="468.24" cy="294.58" r="3.57" transform="translate(102.46 709.58) rotate(-80.78)"/>
    <circle class="cls-5" cx="418.81" cy="294.58" r="3.57"/>
    <circle class="cls-5" cx="468.24" cy="294.58" r="7.18" transform="translate(102.46 709.58) rotate(-80.78)"/>
    <circle class="cls-5" cx="418.81" cy="294.58" r="7.18"/>
    <circle class="cls-5" cx="68.93" cy="253.71" r="7.18"/>
    <circle class="cls-5" cx="94.34" cy="296.52" r="7.18"/>
    <circle class="cls-5" cx="44.91" cy="294.58" r="7.18"/>
  </g>
</svg>